# xmcd
#
# Track frame offsets: 
#        150
#        12912
#        24407
#        34767
#        47992
#        61827
#        72740
#        84015
#        96397
#        110545
#        121440
#        131175
#        145475
#        158650
#        170325
#        182847
#        197932
#        209460
#        226007
#        237240
#
# Disc length: 3330 seconds
#
# Revision: 2
# Processed by: cddbd v1.5.2PL0 Copyright (c) Steve Scherf et al.
# Submitted via: ExactAudioCopyFreeDBPlugin 1.0
#
DISCID=1c0d0014
DTITLE=Carlos Gardel - Lo Mejor De Lo Mejor 40 Temas Originales CD-2
DYEAR=2000
DGENRE=Tango
TTITLE0=Silencio
TTITLE1=Caminito
TTITLE2=La Cumparsita
TTITLE3=Milonga Sentimental
TTITLE4=Mis Buenos Aires Querido
TTITLE5=Duelo Criollo
TTITLE6=Por Tus Ojos Negros
TTITLE7=Criolita Deci Quesi
TTITLE8=Volvió Una Noche
TTITLE9=Ausencia
TTITLE10=Anclao En París
TTITLE11=Madreselva
TTITLE12=Melodía De Arrabal
TTITLE13=Siga El Corso
TTITLE14=Sus Ojos Se Cerraron
TTITLE15=Los Ojos De Mi Moza
TTITLE16=Arrabal Amargo
TTITLE17=Cuando Tú No Estás
TTITLE18=Me Da Pena Confesarlo
TTITLE19=Rubias En New York
EXTD=
EXTT0=
EXTT1=
EXTT2=
EXTT3=
EXTT4=
EXTT5=
EXTT6=
EXTT7=
EXTT8=
EXTT9=
EXTT10=
EXTT11=
EXTT12=
EXTT13=
EXTT14=
EXTT15=
EXTT16=
EXTT17=
EXTT18=
EXTT19=
PLAYORDER=
